<svg id="Capa_1" enable-background="new 0 0 497.421 497.421" height="512" viewBox="0 0 497.421 497.421" width="512" xmlns="http://www.w3.org/2000/svg"><g id="_x3C_Group_x3E__33_"><path d="m391.468 479.748-332.582 2.903c-27.614 0-50-22.386-50-50l.822-369.669c0-16.325-1.059-43.806 11.044-52.931 8.369-6.31 18.784-10.051 30.073-10.051h337.631c27.614 0 50 22.386 50 50v232.149l-21.274 20.128 21.274 135.142c0 27.614-19.374 42.329-46.988 42.329z" fill="#e9edf1"/><path d="m438.458 282.149c-12.81-4.42-26.4-6.72-40.35-6.72-28.79 0-56.81 10.11-78.89 28.47l.63.76-.72-.71c-4.48 3.79-8.07 7.18-11.26 10.67-21.92 23.44-33.73 54.04-33.25 86.18.332 22.35 6.59 43.778 17.996 62.426 1.228 2.008-.188 4.584-2.542 4.584h-239.404c-16.52 0-29.91-13.18-29.91-29.43v-428.32c-12.11 9.11-19.93 23.61-19.93 39.94v387.42c0 27.18 21.69 49.3 48.71 49.98.38.02.75.02 1.13.02h337.94c18.253.021 34.872-10.237 43.36-25.36-.24.126-.49.235-.733.357 4.628-6.556 7.223-14.912 7.223-24.997z" fill="#dce6eb"/><g><path d="m119.921 315.323-59.617.766c-8.284 0-15-6.716-15-15l.191-61.213c0-8.284 2.718-20.004 11.003-20.004h69.364c8.284 0 15 6.716 15 15v69.364c-.001 8.284-12.657 11.087-20.941 11.087z" fill="#6d7c84"/><path d="m56.402 299.363v-79.491c-8.231 0-14.905 6.673-14.905 14.905v69.555c0 8.232 6.673 14.905 14.905 14.905h69.555c8.232 0 14.905-6.673 14.905-14.905h-79.492c-2.744-.001-4.968-2.225-4.968-4.969z" fill="#5f6c75"/></g><g><path d="m249.094 315.323-59.617.766c-8.284 0-15-6.716-15-15l.191-61.213c0-8.284 2.718-20.004 11.003-20.004h69.364c8.284 0 15 6.716 15 15v69.364c-.001 8.284-12.657 11.087-20.941 11.087z" fill="#6d7c84"/><path d="m185.575 299.363v-79.491c-8.231 0-14.905 6.673-14.905 14.905v69.555c0 8.232 6.673 14.905 14.905 14.905h69.555c8.232 0 14.905-6.673 14.905-14.905h-79.491c-2.745-.001-4.969-2.225-4.969-4.969z" fill="#5f6c75"/></g><g><path d="m119.921 444.689-59.617.766c-8.284 0-15-6.716-15-15l.191-61.213c0-8.284 2.718-20.004 11.003-20.004h69.364c8.284 0 15 6.716 15 15v69.364c-.001 8.285-12.657 11.087-20.941 11.087z" fill="#6d7c84"/><path d="m56.402 428.73v-79.491c-8.231 0-14.905 6.673-14.905 14.905v69.555c0 8.232 6.673 14.905 14.905 14.905h69.555c8.232 0 14.905-6.673 14.905-14.905h-79.492c-2.744-.001-4.968-2.226-4.968-4.969z" fill="#5f6c75"/></g><g><path d="m249.094 444.689-59.617.766c-8.284 0-15-6.716-15-15l.191-61.213c0-8.284 2.718-20.004 11.003-20.004h69.364c8.284 0 15 6.716 15 15v69.364c-.001 8.285-12.657 11.087-20.941 11.087z" fill="#6d7c84"/><path d="m185.575 428.73v-79.491c-8.231 0-14.905 6.673-14.905 14.905v69.555c0 8.232 6.673 14.905 14.905 14.905h69.555c8.232 0 14.905-6.673 14.905-14.905h-79.491c-2.745-.001-4.969-2.226-4.969-4.969z" fill="#5f6c75"/></g><path d="m49.538 487.399c-27.01-.58-48.71-22.3-48.71-49.02v-.96c0 27.18 21.69 49.3 48.71 49.98z" fill="#dce6eb"/><path d="m432.388 461.839c-8.02 14.46-23.23 24.52-40.92 25.49 17.38-1.04 32.38-10.95 40.5-25.27.14-.07.28-.15.42-.22z" fill="#dce6eb"/><path d="m367.538 155.578-300.724 2.298c-11.046 0-20-8.954-20-20l-.681-70.809c0-9.507.88-24.113 9.77-26.146 1.439-.329 2.938-.503 4.477-.503h319.945c11.046 0 20 8.954 20 20v80.497c0 1.922-.271 3.781-.777 5.54-2.403 8.351-22.886 9.123-32.01 9.123z" fill="#b3e59f"/><path d="m395.326 147.012h-329.95c-5.522 0-9.998-4.15-9.998-9.269v-92.69c0-1.429.191-2.815.521-4.151-8.885 1.887-15.519 9.246-15.519 18.055v83.421c0 10.238 8.953 18.538 19.997 18.538h319.951c9.502 0 17.44-6.15 19.476-14.387-1.442.306-2.937.483-4.478.483z" fill="#95d6a4"/><path d="m384.207 398.901h-69.364c-8.284 0-15-6.716-15-15l10.8-111.217c0-8.284-4.88-43.574 3.404-43.574l5.668-9.064h64.491c8.284 0 15 6.716 15 15v40.533l-17.389 37.275 17.389 71.047c.001 8.285-6.714 15-14.999 15z" fill="#b3e59f"/><g><path d="m199.486 427.22c-1.907 0-3.814-.728-5.27-2.183-2.91-2.91-2.91-7.629 0-10.539l41.733-41.733c2.911-2.91 7.629-2.91 10.54 0 2.91 2.91 2.91 7.629 0 10.539l-41.733 41.733c-1.456 1.455-3.363 2.183-5.27 2.183z" fill="#f7f9fa"/></g><g><path d="m111.052 277.006h-39.746c-4.116 0-7.452-3.337-7.452-7.452s3.336-7.452 7.452-7.452h39.746c4.116 0 7.452 3.337 7.452 7.452s-3.336 7.452-7.452 7.452z" fill="#f7f9fa"/></g><g><path d="m91.179 296.879c-4.116 0-7.452-3.337-7.452-7.452v-39.746c0-4.116 3.336-7.452 7.452-7.452s7.452 3.337 7.452 7.452v39.746c.001 4.115-3.336 7.452-7.452 7.452z" fill="#f7f9fa"/></g><g><path d="m111.052 406.354h-39.746c-4.116 0-7.452-3.337-7.452-7.452 0-4.116 3.336-7.452 7.452-7.452h39.746c4.116 0 7.452 3.337 7.452 7.452s-3.336 7.452-7.452 7.452z" fill="#f7f9fa"/></g><g><path d="m116.02 197.515h-49.682c-4.116 0-7.452-3.337-7.452-7.452s3.336-7.452 7.452-7.452h49.682c4.116 0 7.452 3.337 7.452 7.452s-3.336 7.452-7.452 7.452z" fill="#6d7c84"/></g><g><path d="m245.193 197.515h-49.682c-4.116 0-7.452-3.337-7.452-7.452s3.336-7.452 7.452-7.452h49.682c4.116 0 7.452 3.337 7.452 7.452s-3.336 7.452-7.452 7.452z" fill="#6d7c84"/></g><g><path d="m374.366 197.515h-49.682c-4.116 0-7.452-3.337-7.452-7.452s3.336-7.452 7.452-7.452h49.682c4.116 0 7.452 3.337 7.452 7.452s-3.336 7.452-7.452 7.452z" fill="#6d7c84"/></g><circle cx="241.434" cy="419.976" fill="#f7f9fa" r="7.452"/><circle cx="199.279" cy="377.82" fill="#f7f9fa" r="7.452"/><path d="m378.672 276.422c-20.738 3.407-38.269 10.065-52.605 20.695-2.627 1.948-6.351.041-6.351-3.229v-73.841h-4.968c-8.232 0-14.905 6.673-14.905 14.905v91.957 57.089c0 8.232 6.673 14.905 14.905 14.905h69.555c8.232 0 14.905-6.673 14.905-14.905v-4.968-103.45c-5.007-.799-15.186-.037-20.536.842z" fill="#95d6a4"/><g><path d="m287.832 127.338c-.001 0-.002 0-.003 0l-207.507-.095c-4.142-.002-7.499-3.361-7.497-7.504.002-4.141 3.359-7.496 7.5-7.496h.003l207.507.095c4.142.002 7.498 3.361 7.496 7.504-.001 4.14-3.359 7.496-7.499 7.496z" fill="#95d6a4"/></g><g><path d="m317.832 127.338c-1.919 0-3.839-.732-5.304-2.196-2.929-2.93-2.929-7.678 0-10.607l42-42c2.93-2.928 7.678-2.928 10.607 0 2.929 2.93 2.929 7.678 0 10.607l-42 42c-1.464 1.463-3.384 2.196-5.303 2.196z" fill="#95d6a4"/></g><path d="m467.742 329.267c-36.336-36.336-93.997-38.35-132.697-6.042-.077.064-.186.235-.263.3-2.19 1.84-3.631 4.291-5.691 6.351-22.711 22.711-26.787 56.953-18.891 88.902 5.478 22.166 38.128 59.413 38.128 59.413s80.947 28.85 119.415-9.618 38.467-100.838-.001-139.306z" fill="#ffd064"/><path d="m473.943 461.776c-1.94 2.34-4.01 4.61-6.2 6.8-38.47 38.46-100.84 38.46-139.31 0-38.46-38.47-38.46-100.84 0-139.31 2.2-2.2 4.47-4.27 6.82-6.21-32.16 38.7-30.09 96.24 6.18 132.52 36.28 36.27 93.81 38.34 132.51 6.2z" fill="#ffc250"/><g><g><path d="m363.257 388.006c-6.389 0-12.396-2.487-16.913-7.006-15.127-14.08-3.734-41.571 16.913-40.83 6.389 0 12.396 2.487 16.913 7.006v-.001.001c4.517 4.517 7.005 10.522 7.005 16.912 0 6.389-2.488 12.395-7.005 16.912-4.518 4.518-10.524 7.006-16.913 7.006zm0-32.836c-2.382 0-4.622.927-6.306 2.611-1.685 1.686-2.613 3.925-2.613 6.307s.928 4.621 2.612 6.306c1.685 1.686 3.924 2.612 6.306 2.612s4.622-.927 6.306-2.611c1.685-1.685 2.612-3.925 2.612-6.307 0-2.383-.927-4.622-2.612-6.306 0 0 0 0 0-.001-1.684-1.685-3.923-2.611-6.305-2.611z" fill="#f7f9fa"/></g><g><path d="m432.914 457.651c-6.125 0-12.25-2.331-16.913-6.993-9.325-9.326-9.325-24.501 0-33.826 9.326-9.327 24.5-9.326 33.826-.001 9.326 9.326 9.326 24.501 0 33.827-4.663 4.662-10.788 6.993-16.913 6.993zm0-32.821c-2.284 0-4.567.87-6.306 2.608-3.477 3.477-3.477 9.136 0 12.613 12.8 10.965 23.038-13.989 6.306-15.221z" fill="#f7f9fa"/></g><g><path d="m352.039 452.471c-1.919 0-3.839-.732-5.303-2.196-2.929-2.93-2.929-7.678 0-10.607l92.102-92.103c2.929-2.928 7.678-2.928 10.606 0 2.929 2.93 2.929 7.678 0 10.607l-92.102 92.103c-1.465 1.464-3.384 2.196-5.303 2.196z" fill="#f7f9fa"/></g></g><circle cx="317.622" cy="77.62" fill="#95d6a4" r="7.49"/><circle cx="360.049" cy="120.054" fill="#95d6a4" r="7.49"/><path d="m230.932 268.743 14.696-14.696c2.929-2.93 2.929-7.678 0-10.607-2.929-2.928-7.678-2.928-10.606 0l-14.697 14.697-14.697-14.697c-2.929-2.928-7.678-2.928-10.606 0-2.929 2.93-2.929 7.678 0 10.607l14.696 14.696-14.696 14.696c-2.929 2.93-2.929 7.678 0 10.607 1.464 1.464 3.384 2.196 5.303 2.196s3.839-.732 5.303-2.196l14.697-14.697 14.697 14.697c1.464 1.464 3.384 2.196 5.303 2.196s3.839-.732 5.303-2.196c2.929-2.93 2.929-7.678 0-10.607z" fill="#f7f9fa"/></g></svg>