<svg height="512" viewBox="0 0 512 512" width="512" xmlns="http://www.w3.org/2000/svg"><g><g><path d="m432 448h-352l-16-16v-352l16-16h352l16 16v352z" fill="#3e3d42"/><circle cx="256" cy="256" fill="#ff9811" r="88"/><g fill="#ffda44"><circle cx="256" cy="256" r="64"/><path d="m448 240h48v32h-48z"/><path d="m448 176h48v32h-48z"/><path d="m448 368h48v32h-48z"/><path d="m448 304h48v32h-48z"/><path d="m448 112h48v32h-48z"/><path d="m16 240h48v32h-48z"/><path d="m16 176h48v32h-48z"/><path d="m16 368h48v32h-48z"/><path d="m16 304h48v32h-48z"/><path d="m16 112h48v32h-48z"/><path d="m232 24h48v32h-48z" transform="matrix(0 -1 1 0 216 296)"/><path d="m168 24h48v32h-48z" transform="matrix(0 -1 1 0 152 232)"/><path d="m360 24h48v32h-48z" transform="matrix(0 -1 1 0 344 424)"/><path d="m296 24h48v32h-48z" transform="matrix(0 -1 1 0 280 360)"/><path d="m104 24h48v32h-48z" transform="matrix(0 -1 1 0 88 168)"/><path d="m232 456h48v32h-48z" transform="matrix(0 -1 1 0 -216 728)"/><path d="m168 456h48v32h-48z" transform="matrix(0 -1 1 0 -280 664)"/><path d="m360 456h48v32h-48z" transform="matrix(0 -1 1 0 -88 856)"/><path d="m296 456h48v32h-48z" transform="matrix(0 -1 1 0 -152 792)"/><path d="m104 456h48v32h-48z" transform="matrix(0 -1 1 0 -344 600)"/></g></g><g><path d="m256 184a72 72 0 1 0 72 72 72.081 72.081 0 0 0 -72-72zm0 128a56 56 0 1 1 56-56 56.063 56.063 0 0 1 -56 56z"/><path d="m256 160a96 96 0 1 0 96 96 96.108 96.108 0 0 0 -96-96zm0 176a80 80 0 1 1 80-80 80.091 80.091 0 0 1 -80 80z"/><path d="m272 240a8 8 0 0 0 0-16h-8a8 8 0 0 0 -16 0h-8a8 8 0 0 0 -8 8v24a8 8 0 0 0 8 8h24v8h-24a8 8 0 0 0 0 16h8a8 8 0 0 0 16 0h8a8 8 0 0 0 8-8v-24a8 8 0 0 0 -8-8h-24v-8z"/><path d="m496 152a8 8 0 0 0 8-8v-32a8 8 0 0 0 -8-8h-40v-24a8.008 8.008 0 0 0 -2.34-5.66l-16-16a8.008 8.008 0 0 0 -5.66-2.34h-24v-40a8 8 0 0 0 -8-8h-32a8 8 0 0 0 -8 8v40h-16v-40a8 8 0 0 0 -8-8h-32a8 8 0 0 0 -8 8v40h-16v-40a8 8 0 0 0 -8-8h-32a8 8 0 0 0 -8 8v40h-16v-40a8 8 0 0 0 -8-8h-32a8 8 0 0 0 -8 8v40h-16v-40a8 8 0 0 0 -8-8h-32a8 8 0 0 0 -8 8v40h-24a8.008 8.008 0 0 0 -5.66 2.34l-16 16a8.008 8.008 0 0 0 -2.34 5.66v24h-40a8 8 0 0 0 -8 8v32a8 8 0 0 0 8 8h40v16h-40a8 8 0 0 0 -8 8v32a8 8 0 0 0 8 8h40v16h-40a8 8 0 0 0 -8 8v32a8 8 0 0 0 8 8h40v16h-40a8 8 0 0 0 -8 8v32a8 8 0 0 0 8 8h40v16h-40a8 8 0 0 0 -8 8v32a8 8 0 0 0 8 8h40v24a8.008 8.008 0 0 0 2.34 5.66l16 16a8.008 8.008 0 0 0 5.66 2.34h24v40a8 8 0 0 0 8 8h32a8 8 0 0 0 8-8v-40h16v40a8 8 0 0 0 8 8h32a8 8 0 0 0 8-8v-40h16v40a8 8 0 0 0 8 8h32a8 8 0 0 0 8-8v-40h16v40a8 8 0 0 0 8 8h32a8 8 0 0 0 8-8v-40h16v40a8 8 0 0 0 8 8h32a8 8 0 0 0 8-8v-40h24a8.008 8.008 0 0 0 5.66-2.34l16-16a8.008 8.008 0 0 0 2.34-5.66v-24h40a8 8 0 0 0 8-8v-32a8 8 0 0 0 -8-8h-40v-16h40a8 8 0 0 0 8-8v-32a8 8 0 0 0 -8-8h-40v-16h40a8 8 0 0 0 8-8v-32a8 8 0 0 0 -8-8h-40v-16h40a8 8 0 0 0 8-8v-32a8 8 0 0 0 -8-8h-40v-16zm-40-32h32v16h-32zm-400 272h-32v-16h32zm0-64h-32v-16h32zm0-64h-32v-16h32zm0-64h-32v-16h32zm0-64h-32v-16h32zm320-112h16v32h-16zm-64 0h16v32h-16zm-64 0h16v32h-16zm-64 0h16v32h-16zm-64 0h16v32h-16zm16 464h-16v-32h16zm64 0h-16v-32h16zm64 0h-16v-32h16zm64 0h-16v-32h16zm64 0h-16v-32h16zm48-59.31-11.31 11.31h-345.38l-11.31-11.31v-345.38l11.31-11.31h345.38l11.31 11.31zm48-52.69v16h-32v-16zm0-64v16h-32v-16zm0-64v16h-32v-16zm0-64v16h-32v-16z"/></g></g></svg>